<svg id="Warstwa_1" data-name="Warstwa 1" xmlns="http://www.w3.org/2000/svg" viewBox="0 0 1493.67742 847.92068">
  <defs>
    <style>
      .cls-1 {
        fill: #191917;
      }
    </style>
  </defs>
  <path class="cls-1" d="M92.2277,239.63233v-8h16.75052v7.44824c0,19.58594,13.456,33.93067,35.42486,33.93067,22.243,0,35.42389-14.06836,35.42389-33.93067,0-21.24218-8.51282-30.3457-40.91634-44.69043-37.07163-16.55175-45.85955-31.72461-45.85955-56,0-28.41406,19.22261-48.82812,51.90124-48.82812,32.95277,0,51.351,19.58594,51.351,48.82812v4.68946H179.827v-4.41407c0-19.58593-12.90581-33.65527-34.60051-33.65527-21.41862,0-34.60051,14.06934-34.60051,32.82813,0,19.8623,9.06206,28.41406,41.7407,43.31054,36.24824,16.55176,45.3103,31.72461,45.3103,57.37988,0,28.96583-19.22261,49.65528-53.27387,49.65528C110.90106,288.18409,92.2277,268.32178,92.2277,239.63233Z"/>
  <path class="cls-1" d="M335.52778,242.9419H270.44563l-10.7098,42.4834H242.98531l48.6048-193.10449h23.61657L364.63584,285.4253H346.51172Zm-3.84471-15.72363L302.575,113.562,274.29034,227.21827Z"/>
  <path class="cls-1" d="M419.27942,92.32081h26.08769L490.12817,253.4253,534.61509,92.32081H561.252V285.4253H543.95128V117.14893L496.71911,285.4253H482.71384L435.20753,117.14893V285.4253H419.27942Z"/>
  <path class="cls-1" d="M623.86209,234.66651V143.0796c0-34.75879,19.22164-53.51758,54.09726-53.51758s54.09725,18.75879,54.09725,53.51758v91.58691c0,34.75879-19.22164,53.51758-54.09725,53.51758S623.86209,269.4253,623.86209,234.66651Zm90.61963,1.37891V141.70069c0-24.82813-13.18091-36.69043-36.52237-36.69043S641.437,116.87256,641.437,141.70069v94.34473c0,24.82812,13.18091,36.69043,36.52238,36.69043S714.48172,260.87354,714.48172,236.04542Z"/>
  <path class="cls-1" d="M794.6657,92.32081h50.52861c36.24727,0,53.548,15.17285,53.548,47.17285v4.41406c0,25.93067-9.3362,40-31.0309,44.96484v.27637c21.6947,4.1377,31.0309,17.93067,31.0309,44.96582v24.82813c0,9.10254.54925,19.30957,3.29547,26.48242h-17.85c-1.92187-6.62109-3.02036-13.793-3.02036-26.48242V233.28663c0-25.65528-10.7098-35.31055-39.26861-35.31055H812.24057V285.4253H794.6657Zm46.6839,89.93164c27.73542,0,39.81785-10.75879,39.81785-35.03516V143.0796c0-25.10352-10.7098-35.31055-36.24825-35.31055H812.24057v74.4834Z"/>
  <path class="cls-1" d="M952.28936,270.25245l85.40326-162.4834H955.58483V92.32081h102.15378v15.17285l-85.6774,162.4834h85.6774V285.4253H952.28936Z"/>
  <path class="cls-1" d="M1230.188,316.32178v11.03516a44.86937,44.86937,0,0,1-17.849,3.58594c-15.92714,0-24.71506-6.6211-24.71506-18.207,0-10.48243,4.6681-18.75879,19.22261-27.31055l-10.98393-42.4834h-65.08216l-10.70979,42.4834h-16.75053l48.6048-193.10449h23.61658l49.42915,193.10449H1221.126c-14.0043,5.51758-19.49675,14.62109-19.49675,22.62109,0,8.55176,6.0417,11.31055,15.10376,11.31055A32.97379,32.97379,0,0,0,1230.188,316.32178Zm-38.17012-89.10351L1162.90984,113.562l-28.28467,113.65625Z"/>
  <path class="cls-1" d="M1279.61425,92.32081h52.72462c36.52335,0,53.549,17.10351,53.549,52.68945v87.72461c0,35.58691-17.02563,52.69043-53.549,52.69043h-52.72462Zm52.17538,177.65625c25.81355,0,36.52335-10.75879,36.52335-36.69043V144.4585c0-25.93066-10.7098-36.68945-36.52335-36.68945h-34.60051v162.208Z"/>
  <path class="cls-1" d="M92.99527,507.96046V383.65284h15.418V509.16456c0,21.44043,11.32227,32.04,31.5586,32.04s31.31738-10.59961,31.31738-32.04V383.65284H186.467V507.96046c0,29.87207-16.38183,46.73535-46.73632,46.73535C109.1359,554.69581,92.99527,537.59131,92.99527,507.96046Z"/>
  <path class="cls-1" d="M240.18277,508.68311V427.25635c0-29.14941,17.10352-46.01269,45.77149-46.01269,29.87207,0,46.49512,16.86328,46.49512,46.01269v11.082H317.75406V426.5337c0-20.959-12.04492-31.79981-31.55859-31.79981-18.5498,0-30.59473,10.84082-30.59473,31.79981v82.87207c0,20.958,12.04493,31.79883,30.59473,31.79883,19.51367,0,31.55859-10.84082,31.55859-31.79883V492.78272h14.69532v15.90039c0,29.14942-16.62305,46.0127-46.49512,46.0127C257.28629,554.69581,240.18277,537.83253,240.18277,508.68311Z"/>
  <path class="cls-1" d="M376.2902,539.03663l74.92187-141.89356H379.18082V383.65284H468.798v13.25L393.6359,538.79639H468.798v13.49024H376.2902Z"/>
  <path class="cls-1" d="M518.17692,383.65284h20.959L600.08512,520.728V383.65284h14.69531V552.28663H598.15836L532.632,404.61182V552.28663H518.17692Z"/>
  <path class="cls-1" d="M672.10856,383.65284h15.418V552.28663h-15.418Z"/>
  <path class="cls-1" d="M742.45133,507.96046V427.979c0-30.35352,16.86328-46.73535,47.458-46.73535s47.458,16.38183,47.458,46.73535v79.98145c0,30.35351-16.86329,46.73535-47.458,46.73535S742.45133,538.314,742.45133,507.96046Zm79.49805,1.2041V426.77491c0-21.68164-11.56348-32.041-32.04-32.041s-32.04,10.35938-32.04,32.041v82.38965c0,21.68164,11.56347,32.04,32.04,32.04S821.94938,530.8462,821.94938,509.16456Z"/>
  <path class="cls-1" d="M881.93082,383.65284H897.59l26.25879,147.916,28.667-147.916h14.45508l28.667,147.916,26.5-147.916h14.21387l-30.83594,168.63379H986.48356L959.74332,413.04346,932.76188,552.28663H913.008Z"/>
  <path class="cls-1" d="M1078.506,512.29639v-6.98633h14.69433V511.814c0,17.10449,11.80469,29.63184,31.07715,29.63184,19.51367,0,31.07715-12.28614,31.07715-29.63184,0-18.54883-7.46777-26.499-35.89551-39.02637-32.52148-14.4541-40.23047-27.7041-40.23047-48.90332,0-24.81347,16.86328-42.64062,45.53125-42.64062,28.90821,0,45.04883,17.10449,45.04883,42.64062V427.979h-14.4541v-3.85449c0-17.10449-11.32227-29.39063-30.35449-29.39063-18.79,0-30.35352,12.28614-30.35352,28.668,0,17.3457,7.94922,24.81348,36.61719,37.82227,31.7998,14.4541,39.75,27.7041,39.75,50.1084,0,25.29492-16.86426,43.36328-46.73633,43.36328C1094.88688,554.69581,1078.506,537.3501,1078.506,512.29639Z"/>
  <path class="cls-1" d="M1263.51481,460.26026l-26.01856,34.69043v57.33594h-15.418V383.65284h15.418v89.61621l67.4541-89.61621h17.1045l-47.69922,63.59863,48.42187,105.03516H1305.673Z"/>
  <path class="cls-1" d="M1370.46988,383.65284h15.418V552.28663h-15.418Z"/>
  <path class="cls-1" d="M92.2277,643.86312h11.30972V765.98031H92.2277Z"/>
  <path class="cls-1" d="M196.12917,643.86312H207.4389V756.21078h48.42022v9.76953H196.12917Z"/>
  <path class="cls-1" d="M288.01957,733.8807V675.96176c0-21.98047,12.37017-33.84375,34.81255-33.84375s34.81254,11.86328,34.81254,33.84375V733.8807c0,21.98145-12.37016,33.84375-34.81254,33.84375S288.01957,755.86215,288.01957,733.8807Zm58.31537.87207V675.08969c0-15.7002-8.48254-23.20215-23.50282-23.20215s-23.50282,7.502-23.50282,23.20215v59.66308c0,15.70117,8.48254,23.20313,23.50282,23.20313S346.33494,750.45394,346.33494,734.75277Z"/>
  <path class="cls-1" d="M441.57483,679.27719H452.5314l18.55475,75.18945,18.20161-75.18945h12.37016l18.20161,75.18945,18.37867-75.18945h10.24928l-21.38292,86.70312H513.49787l-18.02453-75.53809-18.20161,75.53809h-14.1379Z"/>
  <path class="cls-1" d="M632.23959,734.22933V675.96176c0-21.80664,12.37016-33.84375,34.28232-33.84375,22.2663,0,34.81354,12.03711,34.81354,33.84375v5.75781H690.55594v-6.62988c0-15.7002-8.48254-23.20215-23.50381-23.20215-15.02028,0-23.50282,7.502-23.50282,23.20215v59.66308c0,15.70117,8.48254,23.20313,23.50282,23.20313,15.02127,0,23.50381-7.502,23.50381-23.20313V710.67855h-21.56v-10.293h32.3395v33.84375c0,21.63282-12.37017,33.49512-34.28332,33.49512C644.60975,767.72445,632.23959,755.86215,632.23959,734.22933Z"/>
  <path class="cls-1" d="M740.20675,643.86312h10.95657V765.98031H740.20675Z"/>
  <path class="cls-1" d="M792.15551,679.27719h10.95658v86.70312H792.15551Zm.17707-35.58887h10.95658v19.01562H792.33258Z"/>
  <path class="cls-1" d="M837.7436,679.27719h10.95658l18.55475,75.18945,18.2016-75.18945H897.8267l18.2016,75.18945L934.407,679.27719h10.24928l-21.38293,86.70312H909.66664l-18.02453-75.53809-18.2016,75.53809h-14.1379Z"/>
  <path class="cls-1" d="M979.2858,679.27719h10.95657v86.70312H979.2858Zm.17707-35.58887h10.95657v19.01562H979.46287Z"/>
  <path class="cls-1" d="M1028.9376,736.49789V709.28305c0-20.41114,11.30972-31.751,31.45514-31.751,20.49856,0,30.3947,11.33984,30.74785,30.5293v.1748h-10.42537v-.34863c0-13.4336-6.36166-20.93457-20.32248-20.93457-13.07647,0-20.49857,7.67578-20.49857,20.93457v29.65722c0,13.43262,6.53774,20.9336,20.49857,20.9336s20.32248-7.501,20.32248-20.9336v-2.44238h10.42537v1.39551c0,19.71289-9.89515,31.57617-30.74785,31.57617C1039.89417,768.07406,1028.9376,756.73422,1028.9376,736.49789Z"/>
  <path class="cls-1" d="M1178.258,765.98031c-1.06044-2.61719-1.59066-8.02441-1.76674-15.17773-4.59492,10.8164-14.314,16.92187-27.92067,16.92187-15.90464,0-25.27055-8.54785-25.27055-22.85351,0-13.60645,7.06895-21.28321,26.86022-26.168,21.73608-5.582,25.09349-7.501,25.09349-15.00293-.17608-10.81543-6.89188-16.74707-18.73183-16.74707-12.89939,0-19.61519,7.32715-19.61519,17.09668h-10.24929c0-16.04981,11.30973-26.51758,30.21862-26.51758,19.6152,0,29.33426,10.293,29.33426,28.08691v37.333c0,10.46777.53022,18.14356,1.94381,23.02832Zm-3.00425-34.542V718.52914c-2.65012,2.791-8.8357,5.2334-22.61945,8.72266-12.8994,3.48925-18.37769,7.67578-18.37769,17.2705,0,8.89746,5.83144,13.78223,16.43387,13.78223C1165.71176,758.30453,1175.25376,749.40707,1175.25376,731.43832Z"/>
  <path class="cls-1" d="M1224.37533,736.49789V709.28305c0-20.41114,11.30973-31.751,31.45514-31.751,20.49857,0,30.3947,11.33984,30.74785,30.5293v.1748H1276.153v-.34863c0-13.4336-6.36166-20.93457-20.32249-20.93457-13.07646,0-20.49856,7.67578-20.49856,20.93457v29.65722c0,13.43262,6.53774,20.9336,20.49856,20.9336s20.32249-7.501,20.32249-20.9336v-2.44238h10.42536v1.39551c0,19.71289-9.89514,31.57617-30.74785,31.57617C1235.33191,768.07406,1224.37533,756.73422,1224.37533,736.49789Z"/>
  <path class="cls-1" d="M1385.88785,706.14242v59.83789h-10.95558V707.71273c0-13.95605-5.65536-20.75976-17.31823-20.75976-14.66713,0-23.14967,9.94336-23.14967,26.86523v52.16211h-10.95658V643.86312h10.95658v47.79981c4.94806-9.07129,13.96082-14.13086,25.97685-14.13086C1377.22923,677.53207,1385.88785,687.3016,1385.88785,706.14242Z"/>
</svg>
